# File created by Blade
# Date/Time:  Thu Jan 15 17:55:17 2015
#---------------------------------------------------------
:version 1.10
:name HOM
:units
  mass 1.0
  length 1.000000
  angle deg
:documentation
     Acclaim Skeleton File
:root
   axis xyz
   order TX TY TZ RX RY RZ
   position 0.000000 0.000000 0.000000
   orientation 0 0 0
:bonedata
   begin
      id 1
      name Spine_dum
      direction 0.000000 1.000000 0.000000
      length 5.015652
      axis 0.0 0.0 0.0 xyz
   end
   begin
      id 2
      name LeftUpLeg_dum
      direction 1.000000 0.000000 0.000000
      length 4.275145
      axis 0.0 0.0 0.0 xyz
   end
   begin
      id 3
      name RightUpLeg_dum
      direction -1.000000 0.000000 0.000000
      length 4.275145
      axis 0.0 0.0 0.0 xyz
   end
   begin
      id 4
      name Spine
      direction 0.000000 1.000000 0.000000
      length 0.000000
      axis 0.0 0.0 0.0 xyz
      dof rx ry rz
   end
   begin
      id 5
      name Spine_dum1
      direction 0.000000 1.000000 0.000000
      length 15.980521
      axis 0.0 0.0 0.0 xyz
   end
   begin
      id 6
      name Spine_dum2
      direction 0.000000 1.000000 0.000000
      length 12.162712
      axis 0.0 0.0 0.0 xyz
   end
   begin
      id 7
      name Spine_dum3
      direction 0.000000 1.000000 0.000000
      length 12.162712
      axis 0.0 0.0 0.0 xyz
   end
   begin
      id 8
      name Head
      direction 0.000000 1.000000 0.000000
      length 4.527550
      axis 0.0 0.0 0.0 xyz
      dof rx ry rz
   end
   begin
      id 9
      name LeftShoulder
      direction 1.000000 0.000000 0.000000
      length 7.205867
      axis 0.0 0.0 -90.0 xyz
      dof rx ry rz
   end
   begin
      id 10
      name LeftArm
      direction 1.000000 0.000000 0.000000
      length 10.786708
      axis 0.0 0.0 -90.0 xyz
      dof rx ry rz
   end
   begin
      id 11
      name LeftForeArm
      direction 1.000000 0.000000 0.000000
      length 7.946034
      axis 0.0 0.0 -90.0 xyz
      dof rz ry rx
   end
   begin
      id 12
      name LeftHand
      direction 0.000000 0.000000 0.000000
      length 0.000000
      axis 0.0 0.0 -90.0 xyz
      dof rx ry rz
   end
   begin
      id 13
      name LeftHand_dum1
      direction 0.000000 0.000000 0.000000
      length 0.000000
      axis 0.0 0.0 -90.0 xyz
   end
   begin
      id 14
      name LeftHand_dum2
      direction 1.000000 0.000000 0.000000
      length 3.937000
      axis 0.0 0.0 -90.0 xyz
   end
   begin
      id 15
      name LeftHandThumb1
      direction 0.000000 0.000000 1.000000
      length 3.937000
      axis 0.0 0.0 -90.0 xyz
      dof rx ry rz
   end
   begin
      id 16
      name RightShoulder
      direction -1.000000 0.000000 0.000000
      length 7.205867
      axis 0.0 0.0 90.0 xyz
      dof rx ry rz
   end
   begin
      id 17
      name RightArm
      direction -1.000000 0.000000 0.000000
      length 10.786708
      axis 0.0 0.0 90.0 xyz
      dof rx ry rz
   end
   begin
      id 18
      name RightForeArm
      direction -1.000000 0.000000 0.000000
      length 7.946034
      axis 0.0 0.0 90.0 xyz
      dof rz ry rx
   end
   begin
      id 19
      name RightHand
      direction 0.000000 0.000000 0.000000
      length 0.000000
      axis 0.0 0.0 90.0 xyz
      dof rx ry rz
   end
   begin
      id 20
      name RightHand_dum1
      direction 0.000000 0.000000 0.000000
      length 0.000000
      axis 0.0 0.0 90.0 xyz
   end
   begin
      id 21
      name RightHand_dum2
      direction -1.000000 0.000000 0.000000
      length 3.937000
      axis 0.0 0.0 90.0 xyz
   end
   begin
      id 22
      name RightHandThumb1
      direction 0.000000 0.000000 1.000000
      length 3.937000
      axis 0.0 0.0 90.0 xyz
      dof rx ry rz
   end
   begin
      id 23
      name LeftUpLeg
      direction 0.000000 -1.000000 0.000000
      length 17.046659
      axis 0.0 0.0 0.0 xyz
      dof rx ry rz
   end
   begin
      id 24
      name LeftLeg
      direction 0.000000 -1.000000 0.000000
      length 17.458438
      axis 0.0 0.0 0.0 xyz
      dof rx ry rz
   end
   begin
      id 25
      name LeftFoot
      direction 0.000000 -0.258819 0.965926
      length 5.099406
      axis 15.0 0.0 0.0 xyz
      dof rx ry rz
   end
   begin
      id 26
      name LeftToeBase
      direction 0.000000 0.000000 1.000000
      length 2.952750
      axis 0.0 0.0 0.0 xyz
      dof rx ry rz
   end
   begin
      id 27
      name RightUpLeg
      direction 0.000000 -1.000000 0.000000
      length 17.046659
      axis 0.0 0.0 0.0 xyz
      dof rx ry rz
   end
   begin
      id 28
      name RightLeg
      direction 0.000000 -1.000000 0.000000
      length 17.458438
      axis 0.0 0.0 0.0 xyz
      dof rx ry rz
   end
   begin
      id 29
      name RightFoot
      direction 0.000000 -0.258819 0.965926
      length 5.099406
      axis 15.0 0.0 0.0 xyz
      dof rx ry rz
   end
   begin
      id 30
      name RightToeBase
      direction 0.000000 0.000000 1.000000
      length 2.952750
      axis 0.0 0.0 0.0 xyz
      dof rx ry rz
   end
:hierarchy
   begin
      root Spine_dum LeftUpLeg_dum RightUpLeg_dum
      Spine_dum Spine
      LeftUpLeg_dum LeftUpLeg
      RightUpLeg_dum RightUpLeg
      Spine Spine_dum1 Spine_dum2 Spine_dum3
      Spine_dum1 Head
      Spine_dum2 LeftShoulder
      Spine_dum3 RightShoulder
      LeftShoulder LeftArm
      LeftArm LeftForeArm
      LeftForeArm LeftHand
      LeftHand LeftHand_dum1 LeftHand_dum2
      LeftHand_dum1 LeftHandThumb1
      RightShoulder RightArm
      RightArm RightForeArm
      RightForeArm RightHand
      RightHand RightHand_dum1 RightHand_dum2
      RightHand_dum1 RightHandThumb1
      LeftUpLeg LeftLeg
      LeftLeg LeftFoot
      LeftFoot LeftToeBase
      RightUpLeg RightLeg
      RightLeg RightFoot
      RightFoot RightToeBase
   end

# File created by Blade
# Date/Time:  Thu Jan 15 17:55:09 2015
# Frame Rate: 120.000 fps
#------------------------------------------------------
:FULLY-SPECIFIED
:DEGREES
679
root 7.784836 35.898817 -11.262480 1.256529 0.009250 3.252384
Spine -3.934229 -2.828910 -11.561494
Head -3.536212 0.234532 18.685830
LeftShoulder -33.045273 2.632310 0.809245
LeftArm 1.775257 -19.123654 -72.657783
LeftForeArm -0.000000 12.336929 14.247543
LeftHand 4.507825 -0.000000 0.004328
LeftHandThumb1 -26.253704 33.147579 0.000000
RightShoulder 0.802640 4.116726 4.050751
RightArm 16.358079 -11.693780 74.984635
RightForeArm 0.000000 -33.701236 39.193969
RightHand 3.685104 -0.000000 1.043691
RightHandThumb1 -24.326973 -32.862282 -0.000000
LeftUpLeg -11.336824 9.006263 -6.659179
LeftLeg 28.607719 -0.000000 -0.000000
LeftFoot -24.030945 18.160754 -18.741168
LeftToeBase 12.219469 -0.000000 -0.000000
RightUpLeg -0.466304 -11.843572 4.263193
RightLeg 5.842277 -0.000000 -0.000000
RightFoot -26.073447 -24.151541 10.644299
RightToeBase 23.947270 -0.000000 -0.000000
680
root 7.724325 35.901046 -11.323801 1.312049 -0.450112 3.329478
Spine -3.948441 -2.091699 -11.415265
Head -3.475472 0.175493 18.214765
LeftShoulder -33.218662 2.383555 0.569606
LeftArm 1.469263 -18.937209 -72.582747
LeftForeArm -0.000000 11.901314 14.681816
LeftHand 4.372968 -0.000000 -0.043328
LeftHandThumb1 -26.253704 33.147579 0.000000
RightShoulder 1.134646 4.512138 3.803020
RightArm 16.676347 -11.132249 75.051509
RightForeArm -0.000000 -33.519135 39.852700
RightHand 3.698282 -0.000000 0.833310
RightHandThumb1 -24.326973 -32.862282 -0.000000
LeftUpLeg -13.349260 8.406232 -6.694996
LeftLeg 32.011866 -0.000000 -0.000000
LeftFoot -22.877448 19.256525 -18.682893
LeftToeBase 11.156190 -0.000000 -0.000000
RightUpLeg -0.178692 -11.146858 4.295025
RightLeg 4.953141 -0.000000 -0.000000
RightFoot -25.664033 -24.350585 10.382672
RightToeBase 24.105407 -0.000000 -0.000000
681
root 7.664046 35.900702 -11.385480 1.307625 -0.807284 3.296748
Spine -3.860582 -1.388294 -11.126858
Head -3.443920 0.020634 17.706255
LeftShoulder -33.404151 2.210557 0.357372
LeftArm 1.421878 -19.267960 -72.698317
LeftForeArm -0.000000 12.027509 14.690843
LeftHand 4.589648 -0.000000 -0.063895
LeftHandThumb1 -26.253704 33.147579 0.000000
RightShoulder 1.484278 4.907499 3.486052
RightArm 16.965637 -10.407592 75.162685
RightForeArm -0.000000 -33.361192 40.591775
RightHand 3.759152 -0.000000 0.837612
RightHandThumb1 -24.326973 -32.862282 -0.000000
LeftUpLeg -15.501634 7.900618 -6.613137
LeftLeg 35.686459 -0.000000 -0.000000
LeftFoot -21.466233 20.410950 -18.405934
LeftToeBase 10.882706 -0.000000 -0.000000
RightUpLeg 0.122070 -10.900407 4.418636
RightLeg 4.152398 -0.000000 -0.000000
RightFoot -25.178808 -24.261268 10.074984
RightToeBase 24.243862 -0.000000 -0.000000
682
root 7.607554 35.898129 -11.450496 1.282536 -1.126178 3.227399
Spine -3.712131 -0.704295 -10.780757
Head -3.460148 -0.080311 17.174652
LeftShoulder -33.565291 2.043404 0.144054
LeftArm 1.267408 -19.674130 -72.870924
LeftForeArm -0.000000 12.195975 14.956474
LeftHand 4.628604 -0.000000 -0.271444
LeftHandThumb1 -26.253704 33.147579 0.000000
RightShoulder 1.894285 5.321177 3.137772
RightArm 17.162042 -9.598107 75.283373
RightForeArm -0.000000 -33.222521 41.598691
RightHand 3.591501 -0.000000 0.808857
RightHandThumb1 -24.326973 -32.862282 -0.000000
LeftUpLeg -17.801553 7.511287 -6.505379
LeftLeg 39.556545 -0.000000 -0.000000
LeftFoot -19.752298 21.414040 -18.173737
LeftToeBase 11.410664 -0.000000 -0.000000
RightUpLeg 0.329763 -11.081257 4.559400
RightLeg 3.554986 -0.000000 -0.000000
RightFoot -24.706779 -23.802137 9.728384
RightToeBase 24.343485 -0.000000 -0.000000
683
root 7.550789 35.890146 -11.517891 1.181122 -1.296359 3.088340
Spine -3.421323 -0.129015 -10.345209
Head -3.523563 -0.188661 16.658496
LeftShoulder -33.756275 1.921093 -0.042135
LeftArm 1.158551 -19.735560 -73.120057
LeftForeArm -0.000000 12.236772 15.223141
LeftHand 4.619703 -0.000000 -0.252303
LeftHandThumb1 -26.253704 33.147579 0.000000
RightShoulder 2.317110 5.647653 2.762426
RightArm 17.456575 -8.747313 75.343756
RightForeArm -0.000000 -32.976196 42.704707
RightHand 3.468324 -0.000000 0.474815
RightHandThumb1 -24.326973 -32.862282 -0.000000
LeftUpLeg -20.139372 7.165047 -6.317304
LeftLeg 43.580372 -0.000000 -0.000000
LeftFoot -18.575003 22.007077 -17.929649
LeftToeBase 13.918511 -0.000000 -0.000000
RightUpLeg 0.682847 -11.237861 4.764878
RightLeg 2.848966 -0.000000 -0.000000
RightFoot -24.212103 -23.513863 9.405837
RightToeBase 24.447198 -0.000000 -0.000000
684
root 7.498192 35.875699 -11.579938 0.991207 -1.358543 2.904730
Spine -3.005599 0.416236 -9.844720
Head -3.633672 -0.392439 16.146068
LeftShoulder -33.896843 1.876277 -0.210034
LeftArm 1.066761 -19.758972 -73.460173
LeftForeArm -0.000000 12.200379 15.518737
LeftHand 4.632976 -0.000000 -0.304464
LeftHandThumb1 -26.253704 33.147579 0.000000
RightShoulder 2.720612 5.980279 2.367097
RightArm 17.727832 -7.570880 75.527000
RightForeArm -0.000000 -32.702407 43.881329
RightHand 3.684154 -0.000000 0.609730
RightHandThumb1 -24.326973 -32.862282 -0.000000
LeftUpLeg -22.474220 6.827716 -6.103839
LeftLeg 47.718140 -0.000000 -0.000000
LeftFoot -18.217147 22.070416 -17.360874
LeftToeBase 15.291536 -0.000000 -0.000000
RightUpLeg 1.168850 -11.486983 4.987009
RightLeg 2.087412 -0.000000 -0.000000
RightFoot -23.738047 -23.211756 9.106025
RightToeBase 24.592682 -0.000000 -0.000000
685
root 7.451447 35.860502 -11.636415 0.710686 -1.319253 2.708858
Spine -2.469984 0.868664 -9.330582
Head -3.733244 -0.499820 15.706618
LeftShoulder -34.069482 1.837323 -0.357591
LeftArm 0.993403 -19.686341 -73.839010
LeftForeArm -0.000000 12.207903 15.767405
LeftHand 4.531153 -0.000000 -0.422158
LeftHandThumb1 -26.253704 33.147579 0.000000
RightShoulder 3.122349 6.243211 2.021156
RightArm 18.003962 -6.773028 75.381180
RightForeArm -0.000000 -32.231003 45.357979
RightHand 3.618114 -0.000000 0.137513
RightHandThumb1 -24.326973 -32.862282 -0.000000
LeftUpLeg -24.747128 6.346153 -5.901534
LeftLeg 51.962646 -0.000000 -0.000000
LeftFoot -18.163784 21.546575 -16.439629
LeftToeBase 16.583257 -0.000000 -0.000000
RightUpLeg 1.824590 -11.491215 5.202608
RightLeg 1.204898 -0.000000 -0.000000
RightFoot -23.291887 -23.214285 8.948509
RightToeBase 24.744492 -0.000000 -0.000000
686
root 7.411285 35.844089 -11.689308 0.334227 -1.224014 2.594509
Spine -1.819350 1.283872 -8.917136
Head -3.849439 -0.677739 15.361752
LeftShoulder -34.212859 1.807589 -0.439958
LeftArm 0.842610 -19.432382 -74.219897
LeftForeArm -0.000000 12.193904 16.058376
LeftHand 4.515440 -0.000000 -0.372832
LeftHandThumb1 -26.253704 33.147579 0.000000
RightShoulder 3.504212 6.467507 1.747302
RightArm 18.352711 -5.974843 75.104127
RightForeArm 0.000000 -31.498838 46.869900
RightHand 3.528712 -0.000000 -0.308351
RightHandThumb1 -24.326973 -32.862282 -0.000000
LeftUpLeg -26.983055 5.879667 -5.814776
LeftLeg 56.280969 -0.000000 -0.000000
LeftFoot -17.993093 21.023020 -15.757492
LeftToeBase 16.445173 -0.000000 -0.000000
RightUpLeg 2.404972 -12.051571 5.267494
RightLeg 0.692171 -0.000000 -0.000000
RightFoot -22.932661 -22.697402 8.570541
RightToeBase 24.729629 -0.000000 -0.000000
687
root 7.379298 35.831418 -11.734646 -0.096116 -1.001443 2.471995
Spine -1.103795 1.563480 -8.470259
Head -3.979993 -0.896766 15.020030
LeftShoulder -34.371313 1.776112 -0.548690
LeftArm 0.656333 -19.336754 -74.630747
LeftForeArm -0.000000 12.133061 16.390320
LeftHand 4.669608 -0.000000 -0.479963
LeftHandThumb1 -26.253704 33.147579 0.000000
RightShoulder 3.834049 6.695636 1.536087
RightArm 18.705744 -5.295425 74.677556
RightForeArm -0.000000 -30.698188 48.494700
RightHand 3.130741 -0.000000 -0.886894
RightHandThumb1 -24.326973 -32.862282 -0.000000
LeftUpLeg -29.198594 5.383143 -5.769742
LeftLeg 60.499556 -0.000000 -0.000000
LeftFoot -17.906602 20.883397 -15.336512
LeftToeBase 16.976798 -0.000000 -0.000000
RightUpLeg 3.181359 -12.218177 5.330231
RightLeg -0.050803 -0.000000 0.000000
RightFoot -22.690792 -22.575283 8.603299
RightToeBase 25.022550 -0.000000 -0.000000
688
root 7.349209 35.823725 -11.775671 -0.621687 -0.752199 2.405020
Spine -0.283573 1.881951 -8.140197
Head -4.124982 -1.141269 14.886956
LeftShoulder -34.486785 1.766997 -0.613480
LeftArm 0.479004 -19.108525 -75.012370
LeftForeArm 0.000000 12.383709 16.750302
LeftHand 4.621910 -0.000000 -0.614192
LeftHandThumb1 -26.253704 33.147579 0.000000
RightShoulder 4.066034 6.932051 1.487570
RightArm 19.110282 -4.297509 74.335824
RightForeArm -0.000000 -30.208562 50.110911
RightHand 3.062021 0.000000 -1.168355
RightHandThumb1 -24.326973 -32.862282 -0.000000
LeftUpLeg -31.326404 4.915344 -5.806100
LeftLeg 64.618347 -0.000000 -0.000000
LeftFoot -18.043389 20.942330 -15.213423
LeftToeBase 16.417020 -0.000000 -0.000000
RightUpLeg 4.075595 -12.195608 5.319113
RightLeg -0.824884 -0.000000 0.000000
RightFoot -22.329803 -22.662671 8.510751
RightToeBase 25.175168 -0.000000 -0.000000
689
root 7.326199 35.821805 -11.816266 -1.142277 -0.430228 2.440002
Spine 0.549925 2.094952 -7.931854
Head -4.290146 -1.416807 14.780216
LeftShoulder -34.635061 1.719036 -0.722737
LeftArm 0.190756 -18.283474 -75.223895
LeftForeArm -0.000000 12.218557 17.298166
LeftHand 4.420629 0.000000 -0.501956
LeftHandThumb1 -26.253704 33.147579 0.000000
RightShoulder 4.287287 7.214114 1.511905
RightArm 19.469330 -3.393855 73.949798
RightForeArm 0.000000 -29.342894 51.836025
RightHand 2.814995 -0.000000 -1.531023
RightHandThumb1 -24.326973 -32.862282 -0.000000
LeftUpLeg -33.452900 4.334041 -6.020047
LeftLeg 68.613711 -0.000000 -0.000000
LeftFoot -18.310495 20.991055 -14.861082
LeftToeBase 16.836199 -0.000000 -0.000000
RightUpLeg 4.959946 -12.198917 5.205029
RightLeg -1.587410 -0.000000 0.000000
RightFoot -22.122662 -22.809994 8.636868
RightToeBase 25.440728 -0.000000 -0.000000
690
root 7.307533 35.824549 -11.849457 -1.673998 -0.085648 2.570282
Spine 1.353873 2.292933 -7.873321
Head -4.365978 -1.691321 14.819996
LeftShoulder -34.724886 1.758612 -0.753950
LeftArm -0.013160 -18.160431 -75.554612
LeftForeArm -0.000000 12.443792 17.610631
LeftHand 4.587154 -0.000000 -0.765720
LeftHandThumb1 -26.253704 33.147579 0.000000
RightShoulder 4.484836 7.597344 1.622794
RightArm 19.673630 -2.431394 73.610686
RightForeArm 0.000000 -28.617348 53.635944
RightHand 2.562625 -0.000000 -1.788879
RightHandThumb1 -24.326973 -32.862282 -0.000000
LeftUpLeg -35.553781 3.870839 -6.367040
LeftLeg 72.472130 -0.000000 -0.000000
LeftFoot -18.872288 21.185289 -14.594807
LeftToeBase 17.245135 -0.000000 -0.000000
RightUpLeg 5.855615 -12.162740 4.986033
RightLeg -2.305455 -0.000000 0.000000
RightFoot -21.911309 -22.990046 8.633392
RightToeBase 25.782645 -0.000000 -0.000000
691
root 7.296702 35.833064 -11.888832 -2.060618 0.181337 2.733615
Spine 1.984529 2.564689 -7.848640
Head -4.412423 -2.055441 14.892032
LeftShoulder -34.834568 1.856170 -0.857063
LeftArm -0.130076 -18.053184 -75.846021
LeftForeArm 0.000000 12.841902 17.864701
LeftHand 4.884511 -0.000000 -1.124636
LeftHandThumb1 -26.253704 33.147579 0.000000
RightShoulder 4.580343 7.927651 1.775028
RightArm 19.943031 -1.497861 73.270300
RightForeArm 0.000000 -27.702383 55.463310
RightHand 2.277124 -0.000000 -2.322282
RightHandThumb1 -24.326973 -32.862282 -0.000000
LeftUpLeg -37.802990 3.504855 -6.805622
LeftLeg 76.163240 -0.000000 -0.000000
LeftFoot -19.603368 21.668462 -14.681570
LeftToeBase 17.362453 -0.000000 -0.000000
RightUpLeg 6.528782 -12.223671 4.744559
RightLeg -2.912590 -0.000000 0.000000
RightFoot -21.701260 -23.023600 8.648211
RightToeBase 25.903727 -0.000000 -0.000000
